<svg width="175" height="34" viewBox="0 0 175 34" fill="none" xmlns="http://www.w3.org/2000/svg">
<path fill-rule="evenodd" clip-rule="evenodd" d="M10.9229 1.93889C10.9229 0.733112 9.61166 -0.015343 8.57342 0.597793L3.85257 3.38568C3.51803 3.58324 3.26941 3.8987 3.15551 4.27014L0.352887 13.4092C0.052576 14.3884 0.784962 15.3791 1.80925 15.3791C2.65056 15.3791 3.33256 16.0611 3.33256 16.9024V22.6496C3.33256 23.1937 3.61647 23.6983 4.08148 23.9808L8.55682 26.6992C9.59476 27.3296 10.9229 26.5824 10.9229 25.368V1.93889Z" fill="#276FFF"/>
<path fill-rule="evenodd" clip-rule="evenodd" d="M21.2849 1.93889C21.2849 0.733112 22.5961 -0.015343 23.6343 0.597793L28.3552 3.38568C28.6897 3.58324 28.9384 3.8987 29.0523 4.27014L31.8549 13.4092C32.1552 14.3884 31.4228 15.3791 30.3985 15.3791C29.5572 15.3791 28.8752 16.0611 28.8752 16.9024V22.6496C28.8752 23.1937 28.5913 23.6983 28.1263 23.9808L23.6509 26.6992C22.613 27.3296 21.2849 26.5824 21.2849 25.368V1.93889Z" fill="#276FFF"/>
<path fill-rule="evenodd" clip-rule="evenodd" d="M12.2849 8.93888C12.2849 7.73311 13.5961 6.98466 14.6343 7.59779L19.1095 10.2406C19.5839 10.5208 19.875 11.0307 19.875 11.5817V29.6495C19.875 30.1936 19.5911 30.6982 19.1261 30.9806L14.6509 33.699C13.613 34.3294 12.2849 33.5822 12.2849 32.3678V8.93888Z" fill="#276FFF"/>
<path d="M49.5519 26.1534V9.39702H51.9839V16.6232H60.3621V9.39702H62.8058V26.1534H60.3621V18.9156H51.9839V26.1534H49.5519ZM69.6238 26.5025C68.6929 26.5025 67.9132 26.3318 67.2849 25.9905C66.6565 25.6414 66.1794 25.1837 65.8536 24.6174C65.5355 24.0433 65.3765 23.415 65.3765 22.7323C65.3765 22.0962 65.489 21.5376 65.7139 21.0567C65.9389 20.5757 66.2725 20.1684 66.7147 19.8348C67.1569 19.4935 67.6999 19.2181 68.3438 19.0087C68.9023 18.8457 69.5345 18.7022 70.2405 18.5781C70.9464 18.454 71.6873 18.3376 72.463 18.229C73.2465 18.1204 74.0223 18.0118 74.7903 17.9032L73.9059 18.3919C73.9215 17.4067 73.712 16.6775 73.2776 16.2043C72.8509 15.7233 72.1139 15.4828 71.0667 15.4828C70.4073 15.4828 69.8022 15.638 69.2514 15.9483C68.7006 16.2508 68.3166 16.7551 68.0994 17.461L65.8303 16.7628C66.1406 15.6845 66.7302 14.8273 67.599 14.1912C68.4756 13.5551 69.6393 13.237 71.0899 13.237C72.2148 13.237 73.1922 13.431 74.0223 13.8188C74.8601 14.199 75.473 14.804 75.8609 15.6341C76.0625 16.0453 76.1867 16.4797 76.2332 16.9374C76.2798 17.3951 76.303 17.8877 76.303 18.4152V26.1534H74.1503V23.2792L74.5692 23.6516C74.0495 24.6135 73.3862 25.3311 72.5794 25.8043C71.7804 26.2697 70.7952 26.5025 69.6238 26.5025ZM70.0543 24.5127C70.7447 24.5127 71.3382 24.3924 71.8347 24.1519C72.3312 23.9037 72.7307 23.5895 73.0332 23.2094C73.3358 22.8293 73.5336 22.4336 73.6267 22.0225C73.7585 21.6501 73.8322 21.2312 73.8478 20.7657C73.871 20.3003 73.8827 19.9279 73.8827 19.6487L74.6739 19.9396C73.9059 20.0559 73.2078 20.1607 72.5794 20.2537C71.951 20.3468 71.3809 20.4399 70.8689 20.533C70.3646 20.6184 69.9147 20.7231 69.519 20.8472C69.1855 20.9636 68.8868 21.1032 68.623 21.2661C68.367 21.429 68.1615 21.6268 68.0063 21.8596C67.8589 22.0923 67.7852 22.3754 67.7852 22.709C67.7852 23.0348 67.8667 23.3374 68.0296 23.6167C68.1925 23.8882 68.4407 24.1054 68.7743 24.2683C69.1079 24.4312 69.5345 24.5127 70.0543 24.5127ZM79.313 26.1534L79.3247 9.39702H81.7916V19.637L86.7254 13.5861H89.8207L84.6076 19.8697L90.3559 26.1534H87.0512L81.7916 20.1025V26.1534H79.313ZM96.7594 26.5025C95.5027 26.5025 94.4127 26.2193 93.4896 25.653C92.5664 25.0867 91.8527 24.3071 91.3485 23.3141C90.852 22.3134 90.6038 21.1614 90.6038 19.8581C90.6038 18.5471 90.8598 17.3951 91.3718 16.4021C91.8838 15.4014 92.6013 14.6256 93.5245 14.0748C94.4476 13.5163 95.5259 13.237 96.7594 13.237C98.0161 13.237 99.1061 13.5202 100.029 14.0865C100.952 14.6528 101.666 15.4324 102.17 16.4254C102.675 17.4184 102.927 18.5626 102.927 19.8581C102.927 21.1691 102.671 22.325 102.159 23.3257C101.654 24.3187 100.941 25.0984 100.018 25.6647C99.0944 26.2232 98.0084 26.5025 96.7594 26.5025ZM96.7594 24.2101C97.9618 24.2101 98.8578 23.8067 99.4474 22.9999C100.045 22.1854 100.343 21.1381 100.343 19.8581C100.343 18.5471 100.041 17.4998 99.4358 16.7163C98.8384 15.925 97.9463 15.5294 96.7594 15.5294C95.9448 15.5294 95.2738 15.7156 94.7463 16.0879C94.2188 16.4525 93.827 16.9607 93.571 17.6123C93.315 18.2562 93.187 19.0048 93.187 19.8581C93.187 21.1769 93.4896 22.2319 94.0947 23.0232C94.6998 23.8145 95.588 24.2101 96.7594 24.2101ZM120.541 26.1534L120.553 18.3221C120.553 17.4145 120.32 16.7085 119.855 16.2043C119.389 15.6923 118.776 15.4363 118.016 15.4363C117.551 15.4363 117.124 15.5449 116.736 15.7621C116.356 15.9716 116.046 16.2896 115.805 16.7163C115.572 17.1352 115.456 17.6627 115.456 18.2988L114.281 17.7054C114.265 16.821 114.452 16.0453 114.839 15.3781C115.235 14.711 115.77 14.1951 116.445 13.8305C117.12 13.4581 117.876 13.2719 118.714 13.2719C120.072 13.2719 121.123 13.6792 121.868 14.4937C122.612 15.3083 122.985 16.3905 122.985 17.7403L122.973 26.1534H120.541ZM105.472 26.1534V13.5861H107.636V17.2167H107.916V26.1534H105.472ZM113.012 26.1534L113.024 18.3687C113.024 17.4533 112.791 16.7357 112.326 16.2159C111.868 15.6962 111.252 15.4363 110.476 15.4363C109.708 15.4363 109.087 15.7 108.614 16.2276C108.148 16.7551 107.916 17.4455 107.916 18.2988L106.752 17.5541C106.752 16.7318 106.95 15.9987 107.346 15.3548C107.741 14.711 108.276 14.2028 108.951 13.8305C109.626 13.4581 110.39 13.2719 111.244 13.2719C112.136 13.2719 112.896 13.462 113.524 13.8421C114.153 14.2145 114.63 14.7381 114.956 15.413C115.289 16.0879 115.456 16.8714 115.456 17.7636L115.444 26.1534H113.012ZM131.421 26.5025C130.172 26.5025 129.075 26.231 128.128 25.6879C127.189 25.1371 126.456 24.373 125.929 23.3956C125.409 22.4104 125.149 21.27 125.149 19.9745C125.149 18.6014 125.405 17.4106 125.917 16.4021C126.437 15.3936 127.158 14.614 128.082 14.0632C129.005 13.5124 130.079 13.237 131.305 13.237C132.585 13.237 133.675 13.5357 134.575 14.133C135.475 14.7226 136.146 15.5643 136.588 16.6581C137.038 17.7519 137.216 19.0513 137.123 20.5563H134.691V19.6719C134.676 18.2135 134.396 17.1352 133.853 16.437C133.318 15.7388 132.5 15.3897 131.398 15.3897C130.18 15.3897 129.265 15.7737 128.652 16.5417C128.039 17.3097 127.732 18.4191 127.732 19.8697C127.732 21.2506 128.039 22.3211 128.652 23.0814C129.265 23.8339 130.149 24.2101 131.305 24.2101C132.065 24.2101 132.721 24.0394 133.271 23.6981C133.83 23.349 134.264 22.8525 134.575 22.2087L136.96 22.965C136.471 24.0899 135.731 24.9626 134.738 25.5832C133.745 26.196 132.639 26.5025 131.421 26.5025ZM126.941 20.5563V18.6596H135.913V20.5563H126.941ZM139.734 26.1534V13.5861H141.898V16.6348L141.596 16.2392C141.751 15.8358 141.952 15.4673 142.201 15.1337C142.449 14.7924 142.736 14.5131 143.062 14.2959C143.38 14.0632 143.733 13.8848 144.121 13.7607C144.516 13.6288 144.92 13.5512 145.331 13.5279C145.742 13.4969 146.138 13.5163 146.518 13.5861V15.8668C146.107 15.7582 145.649 15.7272 145.145 15.7737C144.648 15.8203 144.19 15.9793 143.772 16.2508C143.376 16.5068 143.062 16.8171 142.829 17.1817C142.604 17.5464 142.441 17.9536 142.34 18.4036C142.239 18.8457 142.189 19.3151 142.189 19.8116V26.1534H139.734ZM153.882 26.5025C152.595 26.5025 151.501 26.2154 150.601 25.6414C149.701 25.0673 149.011 24.2799 148.53 23.2792C148.057 22.2785 147.816 21.142 147.808 19.8697C147.816 18.5742 148.064 17.43 148.553 16.437C149.042 15.4363 149.74 14.6528 150.648 14.0865C151.555 13.5202 152.645 13.237 153.917 13.237C155.29 13.237 156.462 13.5784 157.432 14.261C158.409 14.9437 159.053 15.8785 159.363 17.0654L156.943 17.7636C156.702 17.0576 156.307 16.5107 155.756 16.1228C155.213 15.7272 154.588 15.5294 153.882 15.5294C153.083 15.5294 152.428 15.7194 151.916 16.0996C151.404 16.4719 151.024 16.9839 150.776 17.6356C150.527 18.2872 150.399 19.0319 150.392 19.8697C150.399 21.1653 150.694 22.2125 151.276 23.0116C151.866 23.8106 152.734 24.2101 153.882 24.2101C154.666 24.2101 155.298 24.0317 155.779 23.6748C156.268 23.3102 156.64 22.7905 156.896 22.1156L159.363 22.6974C158.952 23.9231 158.273 24.8656 157.327 25.525C156.38 26.1767 155.232 26.5025 153.882 26.5025ZM170.554 26.1534V19.9745C170.554 19.4857 170.511 18.9854 170.426 18.4734C170.349 17.9536 170.193 17.4727 169.961 17.0305C169.736 16.5883 169.414 16.2314 168.995 15.9599C168.584 15.6884 168.045 15.5527 167.377 15.5527C166.943 15.5527 166.532 15.6264 166.144 15.7737C165.756 15.9134 165.415 16.1422 165.12 16.4603C164.833 16.7784 164.604 17.1973 164.433 17.717C164.27 18.2368 164.189 18.869 164.189 19.6137L162.676 19.0436C162.676 17.9032 162.89 16.8986 163.316 16.0297C163.743 15.1531 164.356 14.4705 165.155 13.9817C165.954 13.493 166.92 13.2487 168.052 13.2487C168.921 13.2487 169.65 13.3883 170.24 13.6676C170.83 13.9468 171.307 14.3153 171.671 14.773C172.044 15.223 172.327 15.7156 172.521 16.2508C172.715 16.7861 172.846 17.3097 172.916 17.8217C172.986 18.3337 173.021 18.7837 173.021 19.1716V26.1534H170.554ZM161.722 26.1534V9.39702H163.898V18.4385H164.189V26.1534H161.722Z" fill="#1B1B1B"/>
</svg>
