<svg width="32" height="34" viewBox="0 0 32 34" fill="none" xmlns="http://www.w3.org/2000/svg">
<path fill-rule="evenodd" clip-rule="evenodd" d="M10.9229 1.93889C10.9229 0.733112 9.61166 -0.015343 8.57342 0.597793L3.85257 3.38568C3.51803 3.58324 3.26941 3.8987 3.15551 4.27014L0.352887 13.4092C0.052576 14.3884 0.784962 15.3791 1.80925 15.3791C2.65056 15.3791 3.33256 16.0611 3.33256 16.9024V22.6496C3.33256 23.1937 3.61647 23.6983 4.08148 23.9808L8.55682 26.6992C9.59476 27.3296 10.9229 26.5824 10.9229 25.368V1.93889Z" fill="#276FFF"/>
<path fill-rule="evenodd" clip-rule="evenodd" d="M21.2849 1.93889C21.2849 0.733112 22.5961 -0.015343 23.6343 0.597793L28.3552 3.38568C28.6897 3.58324 28.9384 3.8987 29.0523 4.27014L31.8549 13.4092C32.1552 14.3884 31.4228 15.3791 30.3985 15.3791C29.5572 15.3791 28.8752 16.0611 28.8752 16.9024V22.6496C28.8752 23.1937 28.5913 23.6983 28.1263 23.9808L23.6509 26.6992C22.613 27.3296 21.2849 26.5824 21.2849 25.368V1.93889Z" fill="#276FFF"/>
<path fill-rule="evenodd" clip-rule="evenodd" d="M12.2849 8.93888C12.2849 7.73311 13.5961 6.98466 14.6343 7.59779L19.1095 10.2406C19.5839 10.5208 19.875 11.0307 19.875 11.5817V29.6495C19.875 30.1936 19.5911 30.6982 19.1261 30.9806L14.6509 33.699C13.613 34.3294 12.2849 33.5822 12.2849 32.3678V8.93888Z" fill="#276FFF"/>
</svg>
